<?xml version="1.0" encoding="utf-8"?>
<svg viewBox="0 0 500 500" xmlns="http://www.w3.org/2000/svg">
  <defs>
    <linearGradient gradientUnits="userSpaceOnUse" x1="250" y1="0" x2="250" y2="500" id="gradient-0" gradientTransform="matrix(-1.000226, 0, 0, -1.000226, 500.056591, 500.106232)">
      <stop offset="0" style="stop-color: rgba(41, 119, 255, 1)"/>
      <stop offset="1" style="stop-color: rgb(65, 195, 255);"/>
    </linearGradient>
  </defs>
  <rect width="500" height="500" style="fill: url(#gradient-0);" rx="111.85" ry="111.85"/>
  <path d="M 446.234 196.483 L 446.234 339.199 L 410.554 339.199 L 410.554 215.927 L 250 303.518 L 53.766 196.483 L 250 89.445 Z M 250 339.199 L 374.877 271.051 L 374.877 342.41 L 250 410.556 L 125.123 342.41 L 125.123 271.051 Z M 290.24 162.347 C 290.24 140.123 272.224 122.106 250 122.106 C 227.777 122.106 209.761 140.123 209.761 162.347 L 229.881 162.347 C 229.881 151.235 238.888 142.226 250 142.226 C 261.066 142.226 270.121 151.181 270.121 162.347 C 270.121 167.879 267.908 172.909 264.186 176.531 L 251.712 189.207 C 244.469 196.449 239.941 206.508 239.941 217.677 L 239.941 222.706 L 260.06 222.706 C 260.06 207.617 264.588 201.479 271.831 194.235 L 280.886 184.98 C 286.619 179.147 290.24 171.2 290.24 162.347 Z M 260.06 242.827 L 239.941 242.827 L 239.941 262.945 L 260.06 262.945 Z" style="fill: rgb(255, 255, 255);"/>
</svg>