<?xml version="1.0" encoding="utf-8"?>
<svg viewBox="0 0 500 500" xmlns="http://www.w3.org/2000/svg">
  <defs>
    <linearGradient gradientUnits="userSpaceOnUse" x1="250" y1="0" x2="250" y2="500" id="gradient-0" gradientTransform="matrix(-1.000226, 0, 0, -1.000226, 500.056335, 500.106262)">
      <stop offset="0" style="stop-color: rgba(41, 119, 255, 1)"/>
      <stop offset="1" style="stop-color: rgb(65, 195, 255);"/>
    </linearGradient>
  </defs>
  <path d="M 374.338 147.353 C 374.338 240.606 250 378.266 250 378.266 C 250 378.266 125.662 240.606 125.662 147.353 C 125.662 78.612 181.259 23.015 250 23.015 C 318.741 23.015 374.338 78.612 374.338 147.353 Z M 294.406 147.353 C 294.406 122.841 274.512 102.946 250 102.946 C 225.488 102.946 205.594 122.841 205.594 147.353 C 205.594 171.865 225.488 191.759 250 191.759 C 274.512 191.759 294.406 171.865 294.406 147.353 Z M 377.78 395.295 L 377.78 475.828 C 377.78 477.207 374.876 478.586 371.972 478.586 C 370.81 478.586 370.229 478.586 369.068 478.31 C 352.805 474.173 333.057 472.518 313.89 472.518 C 294.142 472.518 265.682 476.103 250 480.792 C 233.156 474.724 208.762 472.518 186.11 472.518 C 169.266 472.518 146.615 475 130.932 478.586 C 129.771 478.586 129.19 478.861 128.028 478.861 C 125.124 478.861 122.22 477.482 122.22 476.103 L 122.22 395.295 C 139.064 389.228 163.458 387.021 186.11 387.021 C 208.762 387.021 233.156 389.228 250 395.295 C 266.844 389.228 291.238 387.021 313.89 387.021 C 327.481 387.021 341.653 387.849 354.547 389.779 C 363.259 391.158 370.81 392.813 377.78 395.295 Z M 354.547 400.811 C 341.769 398.881 327.829 398.053 313.89 398.053 C 294.142 398.053 265.682 401.639 250 406.327 L 250 469.76 C 265.682 465.072 294.142 461.486 313.89 461.486 C 327.829 461.486 341.769 462.314 354.547 464.244 Z M 261.616 425.578 L 261.616 416.421 C 276.253 413.443 294.142 411.843 313.89 411.843 C 323.88 411.843 333.754 412.339 342.931 413.167 L 342.931 421.551 C 333.986 420.613 324.112 420.117 313.89 420.117 C 292.98 420.117 274.743 422.047 261.616 425.578 Z M 313.89 426.515 C 323.88 426.515 333.754 427.012 342.931 427.839 L 342.931 436.223 C 333.986 435.286 324.112 434.789 313.89 434.789 C 292.98 434.789 274.743 436.72 261.616 440.25 L 261.616 431.094 C 276.253 428.17 294.142 426.515 313.89 426.515 Z M 342.931 442.567 L 342.931 450.951 C 333.986 450.013 324.112 449.517 313.89 449.517 C 292.98 449.517 274.743 451.447 261.616 454.977 L 261.616 445.821 C 276.253 442.842 294.142 441.243 313.89 441.243 C 323.88 441.243 333.754 441.684 342.931 442.567 Z" style="fill: url(#gradient-0);"/>
</svg>