<?xml version="1.0" encoding="utf-8"?>
<svg viewBox="0 0 500 500" xmlns="http://www.w3.org/2000/svg">
  <defs>
    <linearGradient gradientUnits="userSpaceOnUse" x1="250" y1="0" x2="250" y2="500" id="gradient-0" gradientTransform="matrix(-1.076108, 0, 0, -1.076108, 519.02812, 519.080521)">
      <stop offset="0" style="stop-color: rgba(41, 119, 255, 1)"/>
      <stop offset="1" style="stop-color: rgb(65, 195, 255);"/>
    </linearGradient>
  </defs>
  <path d="M 331.514 114.534 L 331.514 418.661 C 331.514 439.569 314.407 456.677 293.498 456.677 L 65.404 456.677 C 44.495 456.677 27.388 439.569 27.388 418.661 L 27.388 114.534 C 27.388 93.626 44.495 76.519 65.404 76.519 L 293.498 76.519 C 314.407 76.519 331.514 93.626 331.514 114.534 Z M 65.404 266.598 L 112.924 238.086 L 160.443 266.598 L 160.443 114.534 L 65.404 114.534 Z M 383.902 147.903 L 345.658 130.607 L 383.902 113.309 L 401.201 75.064 L 418.498 113.309 L 456.742 130.607 L 418.498 147.903 L 401.201 186.149 Z M 431.034 84.903 L 409.135 75.064 L 431.034 65.224 L 440.873 43.324 L 450.712 65.224 L 472.612 75.064 L 450.712 84.903 L 440.873 106.801 Z" style="fill: url(#gradient-0);"/>
  <g transform="matrix(17.667543, 0, 0, 17.667543, -28.42845, 89.058014)" style=""/>
  <g transform="matrix(9.154249, 0, 0, 9.154249, 369.238935, 168.938948)">
    <g/>
  </g>
</svg>