<?xml version="1.0" standalone="no"?>
<!DOCTYPE svg PUBLIC "-//W3C//DTD SVG 20010904//EN"
 "http://www.w3.org/TR/2001/REC-SVG-20010904/DTD/svg10.dtd">
<svg version="1.0" xmlns="http://www.w3.org/2000/svg"
 width="700.000000pt" height="700.000000pt" viewBox="0 0 700.000000 700.000000"
 preserveAspectRatio="xMidYMid meet">
<metadata>
Created by potrace 1.11, written by Peter Selinger 2001-2013
</metadata>
<g transform="translate(0.000000,700.000000) scale(0.100000,-0.100000)"
fill="#000000" stroke="none">
<path d="M3455 6067 c-22 -13 -85 -47 -140 -76 -55 -30 -109 -59 -120 -66 -11
-7 -54 -30 -95 -52 -41 -22 -147 -80 -235 -128 -88 -48 -189 -103 -225 -123
-36 -19 -100 -54 -142 -78 -43 -24 -80 -44 -83 -44 -3 0 -22 -10 -43 -23 -20
-13 -77 -45 -127 -71 -98 -53 -195 -105 -265 -144 -25 -14 -119 -65 -210 -115
-190 -103 -247 -134 -310 -169 -25 -14 -79 -43 -120 -66 -110 -59 -150 -81
-195 -106 -22 -12 -80 -44 -130 -71 -49 -26 -133 -71 -185 -100 -52 -29 -126
-69 -165 -90 -38 -21 -92 -50 -120 -66 -27 -15 -83 -45 -123 -67 -41 -21 -74
-43 -74 -47 0 -7 506 -288 842 -467 52 -28 100 -54 105 -58 6 -4 46 -26 90
-50 147 -78 209 -113 268 -146 32 -19 60 -34 61 -34 2 0 41 -21 87 -46 139
-77 172 -95 474 -259 160 -87 317 -173 350 -191 50 -26 216 -117 630 -344 28
-15 94 -51 147 -79 l97 -52 93 49 c51 27 109 58 128 69 20 11 71 39 115 63 44
23 94 50 110 60 17 10 64 35 105 57 41 22 95 51 120 65 25 14 270 148 545 298
544 296 588 321 655 358 25 13 74 40 110 59 36 20 83 46 105 58 22 12 78 43
125 68 47 25 150 81 230 125 l145 78 3 -992 2 -993 288 -1 288 0 -1 1149 c0
754 -3 1153 -10 1159 -5 5 -50 31 -100 57 -49 27 -171 93 -269 147 -99 54
-183 98 -187 98 -3 0 -12 7 -19 15 -7 9 -15 13 -17 11 -3 -3 -39 15 -80 40
-41 24 -77 44 -79 44 -3 0 -39 20 -82 44 -42 23 -117 65 -167 91 -49 26 -120
65 -157 87 -36 21 -71 38 -77 38 -6 0 -11 5 -11 10 0 6 -7 10 -15 10 -9 0 -32
11 -53 24 -20 13 -120 69 -222 124 -102 55 -210 113 -240 130 -30 16 -176 96
-325 177 -148 81 -292 160 -320 175 -27 15 -77 42 -110 60 -33 18 -186 101
-341 186 -155 85 -284 154 -285 154 -2 0 -22 -11 -44 -23z m115 -510 c239 -19
460 -195 542 -433 57 -165 44 -334 -35 -469 -20 -33 -92 -118 -162 -190 -207
-212 -242 -283 -254 -502 -1 -23 -2 -23 -161 -23 l-160 0 -2 28 c-4 73 10 182
31 253 35 110 86 184 236 337 193 198 218 239 217 362 -1 255 -296 405 -507
259 -81 -56 -122 -128 -139 -244 -3 -19 -10 -20 -162 -20 l-159 0 2 63 c3 77
42 197 91 277 98 161 287 282 472 302 30 3 57 7 58 9 2 1 9 1 15 -1 7 -2 41
-6 77 -8z m85 -1949 c6 -6 9 -140 6 -280 l-1 -38 -160 0 -160 0 -1 28 c-1 39
-1 275 0 287 1 12 305 14 316 3z"/>
<path d="M5475 3141 c-16 -10 -156 -86 -310 -171 -368 -200 -369 -201 -665
-362 -140 -76 -262 -143 -270 -148 -8 -5 -42 -23 -75 -41 -33 -17 -78 -41
-100 -54 -22 -12 -71 -40 -110 -60 -38 -21 -154 -84 -257 -141 l-187 -103
-138 76 c-76 41 -165 90 -198 108 -49 26 -253 137 -670 365 -27 15 -126 69
-220 121 -93 51 -172 94 -175 94 -3 0 -25 12 -50 27 -47 27 -216 119 -335 183
-38 21 -101 55 -138 76 -38 22 -74 39 -80 39 -9 0 -12 -143 -12 -569 0 -314 3
-572 5 -574 3 -2 39 -22 80 -44 41 -22 102 -55 135 -73 296 -162 372 -203 450
-245 50 -26 95 -51 100 -55 6 -4 46 -27 90 -50 44 -24 168 -91 275 -150 204
-112 285 -156 398 -216 37 -20 135 -74 217 -119 83 -45 176 -96 208 -114 l58
-31 52 29 c56 31 659 360 767 419 36 19 229 125 430 235 201 109 408 222 460
250 52 27 100 53 105 57 6 4 46 27 90 50 44 24 87 48 95 54 13 10 15 83 15
583 0 315 -2 573 -5 572 -3 0 -18 -8 -35 -18z"/>
</g>
</svg>
